<?xml version="1.0" encoding="utf-8"?>
<!-- Generator: Adobe Illustrator 24.1.0, SVG Export Plug-In . SVG Version: 6.00 Build 0)  -->
<svg version="1.1" id="Capa_1" xmlns="http://www.w3.org/2000/svg" xmlns:xlink="http://www.w3.org/1999/xlink" x="0px" y="0px"
	 viewBox="0 0 319.7 95.4" style="enable-background:new 0 0 319.7 95.4;" xml:space="preserve">
<style type="text/css">
	.st0{fill:#FFFFFF;}
</style>
<path class="st0" d="M106.1,61c-3.6,0-6.7-1.2-9-3.7c-2.4-2.5-3.5-5.7-3.5-9.5c0-3.8,1.1-6.9,3.4-9.4c2.3-2.5,5.2-3.8,8.8-3.8
	c3.7,0,6.6,1.2,8.8,3.6c2.2,2.4,3.3,5.7,3.3,10l-0.1,0.5H98.3c0.1,2.4,0.9,4.4,2.4,5.9c1.6,1.5,3.4,2.2,5.6,2.2c3,0,5.3-1.5,7-4.5
	l4.2,2c-1.1,2.1-2.7,3.7-4.6,4.9C110.8,60.4,108.6,61,106.1,61z M98.6,44.8h14.2c-0.1-1.7-0.8-3.1-2.1-4.3c-1.3-1.1-3-1.7-5.1-1.7
	c-1.8,0-3.3,0.5-4.5,1.6C99.9,41.5,99,43,98.6,44.8z"/>
<path class="st0" d="M122.1,35.4h4.5v3.4h0.2c0.7-1.2,1.8-2.2,3.3-3c1.5-0.8,3-1.2,4.6-1.2c3,0,5.4,0.9,7,2.6
	c1.6,1.7,2.5,4.2,2.5,7.4v15.6h-4.7V44.9c-0.1-4.1-2.1-6.1-6.1-6.1c-1.9,0-3.4,0.8-4.7,2.3c-1.3,1.5-1.9,3.3-1.9,5.4v13.7h-4.7V35.4
	z"/>
<path class="st0" d="M147.1,71.6c-1,0-1.9-0.2-2.7-0.5l1.2-4.1c0.5,0.2,1,0.3,1.4,0.3c1.9,0,2.9-1.2,2.9-3.5V35.4h4.7v27.8
	C154.6,68.8,152.1,71.6,147.1,71.6z M155.5,26.8c0,0.9-0.3,1.7-1,2.3c-0.6,0.6-1.4,1-2.3,1c-0.9,0-1.7-0.3-2.3-1
	c-0.6-0.6-1-1.4-1-2.3s0.3-1.7,1-2.3c0.6-0.6,1.4-1,2.3-1c0.9,0,1.7,0.3,2.3,1C155.2,25.1,155.5,25.9,155.5,26.8z"/>
<path class="st0" d="M159,47.8c0-3.8,1.2-7,3.6-9.5c2.4-2.5,5.5-3.7,9.2-3.7s6.7,1.2,9.1,3.7c2.4,2.5,3.6,5.7,3.6,9.5
	c0,3.8-1.2,7-3.6,9.5c-2.4,2.5-5.4,3.7-9.1,3.7s-6.7-1.2-9.2-3.7C160.2,54.8,159,51.6,159,47.8z M163.6,47.8c0,2.7,0.8,4.8,2.3,6.5
	c1.6,1.7,3.5,2.5,5.8,2.5s4.2-0.8,5.8-2.5c1.6-1.7,2.3-3.8,2.3-6.5c0-2.6-0.8-4.8-2.3-6.4c-1.6-1.7-3.5-2.5-5.8-2.5
	c-2.3,0-4.2,0.8-5.8,2.5C164.4,43,163.6,45.2,163.6,47.8z"/>
<path class="st0" d="M209.9,35.4l-15.5,35.8h-4.8l5.8-12.5l-10.2-23.2h5.1l7.4,17.8h0.1l7.2-17.8H209.9z"/>
<path class="st0" d="M212.8,35.4h6.2v3h0.4c0.6-1,1.6-1.9,2.8-2.7c1.3-0.7,2.9-1.1,4.8-1.1c1.6,0,3.1,0.3,4.5,1
	c1.4,0.7,2.7,1.6,3.8,2.7c1.1,1.2,2,2.6,2.6,4.2c0.6,1.6,1,3.4,1,5.3c0,1.9-0.3,3.7-1,5.3c-0.6,1.6-1.5,3-2.6,4.2
	c-1.1,1.2-2.4,2.1-3.8,2.7c-1.4,0.7-2.9,1-4.5,1c-1.9,0-3.5-0.4-4.8-1.1c-1.3-0.7-2.2-1.6-2.8-2.7H219l0.4,3.5v10.4h-6.6V35.4z
	 M225.6,54.9c0.9,0,1.7-0.2,2.5-0.5c0.8-0.3,1.5-0.8,2.1-1.4c0.6-0.6,1.1-1.3,1.5-2.2c0.4-0.9,0.6-1.9,0.6-2.9s-0.2-2.1-0.6-2.9
	c-0.4-0.9-0.9-1.6-1.5-2.2c-0.6-0.6-1.3-1.1-2.1-1.4c-0.8-0.3-1.6-0.5-2.5-0.5c-0.9,0-1.7,0.2-2.5,0.5c-0.8,0.3-1.5,0.8-2.1,1.4
	c-0.6,0.6-1.1,1.3-1.5,2.2c-0.4,0.9-0.6,1.9-0.6,3c0,1.1,0.2,2.1,0.6,3c0.4,0.9,0.9,1.6,1.5,2.2c0.6,0.6,1.3,1.1,2.1,1.4
	C223.9,54.7,224.8,54.9,225.6,54.9z"/>
<path class="st0" d="M258.5,57.6H258c-0.8,0.9-1.7,1.8-2.8,2.4c-1.1,0.7-2.5,1-4.2,1c-1.3,0-2.5-0.2-3.6-0.6c-1.1-0.4-2.1-1-3-1.7
	s-1.5-1.6-2-2.7c-0.5-1-0.7-2.2-0.7-3.4c0-1.3,0.3-2.4,0.8-3.5c0.5-1,1.2-1.9,2.1-2.7c0.9-0.7,2-1.3,3.2-1.7c1.2-0.4,2.6-0.6,4-0.6
	c1.6,0,3,0.1,4,0.4c1,0.3,1.9,0.5,2.6,0.8v-0.8c0-1.3-0.5-2.4-1.6-3.3c-1-0.9-2.3-1.3-3.9-1.3c-2.3,0-4.2,1-5.8,2.9l-4.8-3.3
	c2.6-3.3,6.2-5,10.8-5c3.8,0,6.8,0.9,8.8,2.7c2,1.8,3,4.5,3,8v14.9h-6.5V57.6z M258.5,50.1c-0.8-0.4-1.6-0.7-2.4-0.9
	c-0.8-0.2-1.7-0.3-2.7-0.3c-1.6,0-2.8,0.3-3.7,1c-0.9,0.7-1.3,1.5-1.3,2.6c0,1,0.4,1.8,1.2,2.4c0.8,0.6,1.8,0.9,2.9,0.9
	c0.9,0,1.7-0.2,2.4-0.5c0.7-0.3,1.4-0.7,1.9-1.3c0.5-0.5,0.9-1.1,1.2-1.8C258.3,51.6,258.5,50.9,258.5,50.1z"/>
<path class="st0" d="M279.8,61c-1.6,0-3.1-0.2-4.3-0.6c-1.3-0.4-2.4-0.9-3.3-1.6c-0.9-0.7-1.7-1.4-2.4-2.3c-0.6-0.9-1.1-1.7-1.5-2.6
	l5.9-2.5c0.6,1.3,1.3,2.2,2.3,2.9c1,0.6,2,0.9,3.2,0.9c1.2,0,2.2-0.2,2.9-0.7c0.7-0.4,1.1-1,1.1-1.6c0-0.7-0.3-1.2-0.9-1.6
	c-0.6-0.4-1.6-0.8-3.1-1.1l-3.5-0.8c-0.8-0.2-1.6-0.4-2.4-0.8c-0.8-0.4-1.6-0.8-2.3-1.4c-0.7-0.6-1.2-1.3-1.7-2.1
	c-0.4-0.8-0.7-1.8-0.7-2.8c0-1.2,0.3-2.3,0.8-3.2c0.5-0.9,1.2-1.7,2.2-2.4c0.9-0.7,2-1.2,3.2-1.5c1.2-0.4,2.6-0.5,4-0.5
	c2.4,0,4.5,0.5,6.3,1.4c1.9,0.9,3.2,2.4,4.1,4.4l-5.7,2.3c-0.5-1-1.2-1.7-2.1-2.1c-0.9-0.4-1.8-0.7-2.7-0.7c-0.9,0-1.8,0.2-2.5,0.6
	c-0.7,0.4-1.1,0.9-1.1,1.5c0,0.6,0.3,1,0.9,1.4c0.6,0.3,1.4,0.6,2.4,0.9l3.8,0.9c2.5,0.6,4.4,1.6,5.6,2.9c1.2,1.3,1.8,2.9,1.8,4.7
	c0,1.1-0.3,2.1-0.8,3.1c-0.5,1-1.2,1.8-2.2,2.6c-0.9,0.8-2,1.4-3.3,1.8C282.9,60.8,281.4,61,279.8,61z"/>
<path class="st0" d="M304.3,61c-1.6,0-3.1-0.2-4.3-0.6c-1.3-0.4-2.4-0.9-3.3-1.6c-0.9-0.7-1.7-1.4-2.4-2.3c-0.6-0.9-1.1-1.7-1.5-2.6
	l5.9-2.5c0.6,1.3,1.3,2.2,2.3,2.9c1,0.6,2,0.9,3.2,0.9c1.2,0,2.2-0.2,2.9-0.7c0.7-0.4,1.1-1,1.1-1.6c0-0.7-0.3-1.2-0.9-1.6
	c-0.6-0.4-1.6-0.8-3.1-1.1l-3.5-0.8c-0.8-0.2-1.6-0.4-2.4-0.8c-0.8-0.4-1.6-0.8-2.3-1.4c-0.7-0.6-1.2-1.3-1.7-2.1
	c-0.4-0.8-0.7-1.8-0.7-2.8c0-1.2,0.3-2.3,0.8-3.2c0.5-0.9,1.2-1.7,2.2-2.4c0.9-0.7,2-1.2,3.2-1.5c1.2-0.4,2.6-0.5,4-0.5
	c2.4,0,4.5,0.5,6.3,1.4c1.9,0.9,3.2,2.4,4.1,4.4l-5.7,2.3c-0.5-1-1.2-1.7-2.1-2.1c-0.9-0.4-1.8-0.7-2.7-0.7c-0.9,0-1.8,0.2-2.5,0.6
	c-0.7,0.4-1.1,0.9-1.1,1.5c0,0.6,0.3,1,0.9,1.4c0.6,0.3,1.4,0.6,2.4,0.9l3.8,0.9c2.5,0.6,4.4,1.6,5.6,2.9c1.2,1.3,1.8,2.9,1.8,4.7
	c0,1.1-0.3,2.1-0.8,3.1c-0.5,1-1.2,1.8-2.2,2.6c-0.9,0.8-2,1.4-3.3,1.8C307.3,60.8,305.9,61,304.3,61z"/>
<path class="st0" d="M10.8,14.1H6.9c-1.4,0-2.5-1.1-2.5-2.5V7.7c0-1.4,1.1-2.5,2.5-2.5h3.9c1.4,0,2.5,1.1,2.5,2.5v3.9
	C13.3,13,12.2,14.1,10.8,14.1z"/>
<g>
	<path class="st0" d="M43.1,39.5c0.2-1.1,0.4-2.2,0.7-3.3c0.7-3.6,1.4-7.2,2.2-10.7c0.4-2,1.6-3.3,3.6-3.7c1.9-0.4,3.5,0.2,4.8,1.8
		c1,1.2,1.1,2.6,0.9,4.1c-0.4,2.1-0.8,4.3-1.3,6.4c-0.4,2.1-0.8,4.2-1.2,6.2c-0.5,2.7-1.1,5.5-1.7,8.2c0,0.1,0,0.2,0.1,0.3
		c0.2,0.2,0.5,0.5,0.7,0.7c2,2,3.1,4.4,3.4,7.2c0.2,1.7,0,3.3-0.4,4.9c-0.8,3.2-2.4,6-4.8,8.2c-3.6,3.3-8,4.7-12.9,4.3
		c-2.2-0.2-4.3-0.9-6.2-1.9c-3.3-1.9-5.7-4.5-7.2-8c-0.6-1.3-0.9-2.7-1.1-4.1c-0.1-0.7-0.2-1.4-0.2-2c0-4.8,0-9.7,0-14.5
		c0-2.8,2.7-4.9,5.4-4.2c0.5,0.1,1,0.4,1.4,0.5c0.7-1.7,2-2.7,3.9-2.9c0-0.1,0-0.1,0-0.2c-0.5-2.5-1-5-1.5-7.5
		c-0.2-1.2-0.5-2.4-0.4-3.6c0.1-1.9,1.3-3.5,3.1-4c2.2-0.6,4.5,0.6,5.1,2.8c0.3,1.2,0.6,2.4,0.9,3.5c0.9,3.4,1.7,6.8,2.6,10.2
		C42.8,38.7,42.9,39.1,43.1,39.5C43,39.5,43.1,39.5,43.1,39.5z M24.5,53.8c0,1.5,0,3,0,4.5c0.3,5.8,4,10.8,9.5,12.8
		c0.7,0.2,1.3,0.4,2,0.6c2.1,0.4,4.1,0.4,6.2-0.2c3.3-0.8,6-2.6,8-5.4c1.4-1.9,2.3-4,2.6-6.4c0.2-1.2,0.2-2.4,0-3.6
		c-0.3-2-1.2-3.7-2.6-5.2c-0.2-0.2-0.4-0.4-0.6-0.6c-0.6-0.7-1.3-1.1-2-1.6c-0.7-0.5-1.4-1-2.2-1.3c-1.9-0.8-3.9-1-6-0.4
		c-0.9,0.3-1.8,0.6-2.6,1c-0.9,0.4-1.5,1.4-1.3,2.4c0.2,1,1.1,1.7,2.1,1.7c2.4,0,4.4,0.8,6.2,2.4c0.8,0.7,1.6,1.5,2.3,2.3
		c0.4,0.4,0.4,1.1,0,1.5c-0.4,0.4-1.1,0.4-1.6,0c-0.7-0.7-1.4-1.4-2.1-2.1c-1.3-1.3-2.9-2-4.8-2c-1.7,0-2.9-0.7-3.8-2.1
		c0-0.1-0.1-0.1-0.2-0.1c-1.5,0.2-2.7-0.4-3.7-1.4c0,0,0,0,0-0.1c-1.6,1.6-3.4,2-5.5,0.9C24.5,52.4,24.5,53.1,24.5,53.8z M49,47.1
		c0.1-0.6,0.2-1.1,0.3-1.6c0.7-3.4,1.4-6.8,2-10.2c0.2-1,0.4-2.1,0.6-3.1c0.3-1.7,0.7-3.4,1-5.1c0.1-0.8,0.1-1.5-0.3-2.2
		c-0.5-0.9-1.5-1.4-2.5-1.2c-1,0.2-1.8,0.9-2.1,1.9c-0.1,0.7-0.3,1.3-0.4,2c-0.5,2.4-0.9,4.8-1.4,7.1c-0.7,3.3-1.3,6.6-2,9.9
		c0,0,0,0.1,0,0.2C46,45.2,47.5,46.1,49,47.1z M42,44.6c-0.1-0.5-0.2-0.9-0.3-1.4c-1-3.8-1.9-7.6-2.9-11.5c-0.5-2.2-1.1-4.3-1.6-6.5
		c-0.2-0.9-1-1.6-2-1.5c-0.9,0-1.8,0.7-1.9,1.6c-0.1,0.7-0.1,1.4,0.1,2.2c0.7,3.2,1.3,6.5,2,9.7c0,0.1,0.1,0.2,0.2,0.3
		c1.4,0.9,2.1,2.1,2.1,3.7c0,1.3,0,2.6,0,3.9c0,0.1,0,0.2,0,0.3C39.1,44.9,40.5,44.6,42,44.6z M33.8,48.1c0.4-0.7,0.9-1.2,1.5-1.6
		c0.1-0.1,0.1-0.1,0.1-0.3c0-1.6,0-3.3,0-4.9c0-1.2-0.9-2.1-2-2.2c-1.2-0.1-2.2,0.7-2.4,1.9c0,0.1,0,0.2,0,0.4c0,2.2,0,4.3,0,6.5
		c0,1.1,0.8,2,1.9,2.2c0.1,0,0.2,0,0.3,0C33.3,49.3,33.5,48.7,33.8,48.1z M28.9,43.5c0-1.2-1-2.2-2.2-2.2c-1.2,0-2.2,1-2.2,2.2
		c0,1.5,0,2.9,0,4.4c0,1.2,1,2.2,2.2,2.2c1.2,0,2.2-1,2.2-2.2c0-0.7,0-1.4,0-2.2C28.9,44.9,28.9,44.2,28.9,43.5z"/>
	<path class="st0" d="M74.5,22.2h-3.9c-1.4,0-2.5-1.1-2.5-2.5v-3.9c0-1.4,1.1-2.5,2.5-2.5h3.9c1.4,0,2.5,1.1,2.5,2.5v3.9
		C77,21.1,75.9,22.2,74.5,22.2z"/>
	<path class="st0" d="M18.4,85.9h-2.6c-0.5,0-1-0.4-1-1v-2.6c0-0.5,0.4-1,1-1h2.6c0.5,0,1,0.4,1,1V85C19.4,85.5,18.9,85.9,18.4,85.9
		z"/>
	<path class="st0" d="M78.7,71.7h-2.6c-0.5,0-1-0.4-1-1v-2.6c0-0.5,0.4-1,1-1h2.6c0.5,0,1,0.4,1,1v2.6
		C79.6,71.3,79.2,71.7,78.7,71.7z"/>
	<path class="st0" d="M65.9,31.8h-2.6c-0.5,0-1-0.4-1-1v-2.6c0-0.5,0.4-1,1-1h2.6c0.5,0,1,0.4,1,1v2.6
		C66.8,31.3,66.4,31.8,65.9,31.8z"/>
	<path class="st0" d="M23.2,14.8h-2.6c-0.5,0-1-0.4-1-1v-2.6c0-0.5,0.4-1,1-1h2.6c0.5,0,1,0.4,1,1v2.6
		C24.1,14.4,23.7,14.8,23.2,14.8z"/>
	<path class="st0" d="M12.1,77.9H5.7c-0.5,0-1-0.4-1-1v-6.5c0-0.5,0.4-1,1-1h6.5c0.5,0,1,0.4,1,1v6.5C13.1,77.5,12.7,77.9,12.1,77.9
		z"/>
	<path class="st0" d="M75,85.8h-3.9c-1.4,0-2.5-1.1-2.5-2.5v-3.9c0-1.4,1.1-2.5,2.5-2.5H75c1.4,0,2.5,1.1,2.5,2.5v3.9
		C77.5,84.6,76.4,85.8,75,85.8z"/>
</g>
</svg>
